<mxfile host="Electron" agent="Mozilla/5.0 (Windows NT 10.0; Win64; x64) AppleWebKit/537.36 (KHTML, like Gecko) draw.io/26.0.9 Chrome/128.0.6613.186 Electron/32.2.5 Safari/537.36" version="26.0.9">
  <diagram id="prtHgNgQTEPvFCAcTncT" name="Deployment Pipelines">
    <mxGraphModel dx="1728" dy="998" grid="1" gridSize="10" guides="1" tooltips="1" connect="1" arrows="1" fold="1" page="1" pageScale="1" pageWidth="827" pageHeight="1169" math="0" shadow="0">
      <root>
        <mxCell id="0" />
        <mxCell id="1" parent="0" />
        <mxCell id="dNxyNK7c78bLwvsdeMH5-19" value="CD Pipeline" style="swimlane;html=1;childLayout=stackLayout;resizeParent=1;resizeParentMax=0;horizontal=0;startSize=20;horizontalStack=0;" parent="1" vertex="1">
          <mxGeometry x="160" y="160" width="720" height="620" as="geometry" />
        </mxCell>
        <mxCell id="k3Ru9bbp_LTUdSwclLNq-19" value="Infrastructure Stage" style="swimlane;html=1;startSize=20;horizontal=0;" parent="dNxyNK7c78bLwvsdeMH5-19" vertex="1">
          <mxGeometry x="20" width="700" height="120" as="geometry" />
        </mxCell>
        <mxCell id="k3Ru9bbp_LTUdSwclLNq-22" value="Push on&amp;nbsp;&lt;div&gt;dev/main&lt;/div&gt;" style="text;html=1;align=center;verticalAlign=middle;resizable=0;points=[];autosize=1;strokeColor=none;fillColor=none;" parent="k3Ru9bbp_LTUdSwclLNq-19" vertex="1">
          <mxGeometry x="90" y="70" width="70" height="40" as="geometry" />
        </mxCell>
        <mxCell id="k3Ru9bbp_LTUdSwclLNq-30" style="edgeStyle=orthogonalEdgeStyle;rounded=0;orthogonalLoop=1;jettySize=auto;html=1;" parent="k3Ru9bbp_LTUdSwclLNq-19" source="k3Ru9bbp_LTUdSwclLNq-31" target="k3Ru9bbp_LTUdSwclLNq-33" edge="1">
          <mxGeometry relative="1" as="geometry" />
        </mxCell>
        <mxCell id="k3Ru9bbp_LTUdSwclLNq-31" value="" style="ellipse;whiteSpace=wrap;html=1;" parent="k3Ru9bbp_LTUdSwclLNq-19" vertex="1">
          <mxGeometry x="105" y="30" width="40" height="40" as="geometry" />
        </mxCell>
        <mxCell id="k3Ru9bbp_LTUdSwclLNq-33" value="&lt;div&gt;&lt;b&gt;Terraform&lt;/b&gt;&lt;/div&gt;Apply changes to&amp;nbsp;&lt;span style=&quot;background-color: transparent; color: light-dark(rgb(0, 0, 0), rgb(255, 255, 255));&quot;&gt;the infrastructure&lt;/span&gt;" style="points=[[0.25,0,0],[0.5,0,0],[0.75,0,0],[1,0.25,0],[1,0.5,0],[1,0.75,0],[0.75,1,0],[0.5,1,0],[0.25,1,0],[0,0.75,0],[0,0.5,0],[0,0.25,0]];shape=mxgraph.bpmn.task;whiteSpace=wrap;rectStyle=rounded;size=10;html=1;container=1;expand=0;collapsible=0;taskMarker=abstract;" parent="k3Ru9bbp_LTUdSwclLNq-19" vertex="1">
          <mxGeometry x="325" y="10" width="120" height="80" as="geometry" />
        </mxCell>
        <mxCell id="dNxyNK7c78bLwvsdeMH5-20" value="Build Stage" style="swimlane;html=1;startSize=20;horizontal=0;" parent="dNxyNK7c78bLwvsdeMH5-19" vertex="1">
          <mxGeometry x="20" y="120" width="700" height="260" as="geometry" />
        </mxCell>
        <mxCell id="jOofy7N0YQkzsHya_9s3-7" style="edgeStyle=orthogonalEdgeStyle;rounded=0;orthogonalLoop=1;jettySize=auto;html=1;" parent="dNxyNK7c78bLwvsdeMH5-20" source="jOofy7N0YQkzsHya_9s3-28" target="jOofy7N0YQkzsHya_9s3-30" edge="1">
          <mxGeometry relative="1" as="geometry">
            <mxPoint x="80" y="205" as="sourcePoint" />
            <mxPoint x="279.9999999999998" y="205" as="targetPoint" />
          </mxGeometry>
        </mxCell>
        <mxCell id="dNxyNK7c78bLwvsdeMH5-33" value="" style="edgeStyle=orthogonalEdgeStyle;rounded=0;orthogonalLoop=1;jettySize=auto;html=1;endArrow=classic;endFill=1;dashed=1;" parent="dNxyNK7c78bLwvsdeMH5-20" source="jOofy7N0YQkzsHya_9s3-30" target="jOofy7N0YQkzsHya_9s3-24" edge="1">
          <mxGeometry relative="1" as="geometry">
            <mxPoint x="359.9999999999998" y="205" as="sourcePoint" />
            <mxPoint x="419.9999999999998" y="205.00499999999988" as="targetPoint" />
            <Array as="points">
              <mxPoint x="450" y="55" />
              <mxPoint x="450" y="55" />
            </Array>
          </mxGeometry>
        </mxCell>
        <mxCell id="jOofy7N0YQkzsHya_9s3-9" style="edgeStyle=orthogonalEdgeStyle;rounded=0;orthogonalLoop=1;jettySize=auto;html=1;exitX=1;exitY=0.5;exitDx=0;exitDy=0;exitPerimeter=0;entryX=0;entryY=0.75;entryDx=0;entryDy=0;dashed=1;entryPerimeter=0;" parent="dNxyNK7c78bLwvsdeMH5-20" source="jOofy7N0YQkzsHya_9s3-6" target="jOofy7N0YQkzsHya_9s3-30" edge="1">
          <mxGeometry relative="1" as="geometry">
            <mxPoint x="279.9999999999998" y="220" as="targetPoint" />
          </mxGeometry>
        </mxCell>
        <mxCell id="jOofy7N0YQkzsHya_9s3-6" value="" style="verticalLabelPosition=bottom;html=1;verticalAlign=top;align=center;strokeColor=none;fillColor=#00BEF2;shape=mxgraph.azure.cloud_service_package_file;" parent="dNxyNK7c78bLwvsdeMH5-20" vertex="1">
          <mxGeometry x="280" y="85" width="40" height="40" as="geometry" />
        </mxCell>
        <mxCell id="jOofy7N0YQkzsHya_9s3-8" style="edgeStyle=orthogonalEdgeStyle;rounded=0;orthogonalLoop=1;jettySize=auto;html=1;exitX=1;exitY=0.75;exitDx=0;exitDy=0;entryX=0;entryY=0.5;entryDx=0;entryDy=0;entryPerimeter=0;dashed=1;exitPerimeter=0;" parent="dNxyNK7c78bLwvsdeMH5-20" source="jOofy7N0YQkzsHya_9s3-28" target="jOofy7N0YQkzsHya_9s3-6" edge="1">
          <mxGeometry relative="1" as="geometry">
            <mxPoint x="80" y="220" as="sourcePoint" />
          </mxGeometry>
        </mxCell>
        <mxCell id="jOofy7N0YQkzsHya_9s3-24" value="" style="strokeColor=#dddddd;shadow=1;strokeWidth=1;rounded=1;absoluteArcSize=1;arcSize=2;" parent="dNxyNK7c78bLwvsdeMH5-20" vertex="1">
          <mxGeometry x="507" y="25" width="130" height="60" as="geometry" />
        </mxCell>
        <mxCell id="jOofy7N0YQkzsHya_9s3-25" value="Artifact&#xa;Registry" style="editableCssRules=.*;html=1;fontColor=#999999;shape=image;verticalLabelPosition=middle;verticalAlign=middle;labelPosition=right;align=left;spacingLeft=20;part=1;points=[];imageAspect=0;image=data:image/svg+xml,PHN2ZyB4bWxucz0iaHR0cDovL3d3dy53My5vcmcvMjAwMC9zdmciIHhtbG5zOnY9Imh0dHBzOi8vdmVjdGEuaW8vbmFubyIgd2lkdGg9IjIxLjk5OTAwMDU0OTMxNjQwNiIgaGVpZ2h0PSIyMC4zOTM5OTkwOTk3MzE0NDUiIHZpZXdCb3g9IjAgMCAyMS45OTkwMDA1NDkzMTY0MDYgMjAuMzkzOTk5MDk5NzMxNDQ1Ij4mI3hhOwk8c3R5bGUgdHlwZT0idGV4dC9jc3MiPiYjeGE7CS5zdDB7ZmlsbDojNDI4NWY0O2ZpbGwtcnVsZTpldmVub2RkfSYjeGE7CTwvc3R5bGU+JiN4YTsJPHBhdGggY2xhc3M9InN0MCIgZD0iTTUgMHYyLjQ1OEwxLjk5OSA0LjE5N3YxMi4wMUw1IDE3LjkzOHYyLjQ1NmwtNS0yLjg4N1YyLjg4NnptMTIgMGw0Ljk5OSAyLjg4NnYxNC42MjFMMTcgMjAuMzk0di0yLjQ1NmwzLTEuNzMxVjQuMTk3bC0zLTEuNzM5em0tNi4wMTYgNi42NzNsMi45NDctMS42NDYtMi45NDctMS42NDYtMi45NDcgMS42NDZ6bTMuMjY4LTEuMDk2bC0yLjg3MSAxLjY3OHYzLjI4N2wyLjg3MS0xLjY3NnpNNy43NzMgOC44NjZsMi44NzEgMS42NzRWNy4yNTZMNy43NzMgNS41Nzd6bS0uMjEyIDMuODc4bDIuODItMS42NDYtMi44Mi0xLjY0Ni0yLjgyIDEuNjQ2em0zLjEzMi0xLjA5OGwtMi44NzEgMS42Nzh2My4yODdsMi44NzEtMS42NzZ6bS02LjI2NCAzLjI4OUw3LjMgMTYuNjA5di0zLjI4NWwtMi44NzEtMS42Nzl6bTEwLjAyOS0yLjE5MWwyLjgyLTEuNjQ2LTIuODItMS42NDYtMi44MiAxLjY0NnptMy4xMzItMS4wOThsLTIuODcxIDEuNjc4djMuMjg3bDIuODcxLTEuNjc2em0tNi4yNjQgMy4yODlsMi44NzEgMS42NzR2LTMuMjg1bC0yLjg3MS0xLjY3OXoiLz4mI3hhOzwvc3ZnPg==;" parent="jOofy7N0YQkzsHya_9s3-24" vertex="1">
          <mxGeometry width="30" height="27" relative="1" as="geometry">
            <mxPoint x="15" y="16" as="offset" />
          </mxGeometry>
        </mxCell>
        <mxCell id="jOofy7N0YQkzsHya_9s3-28" value="Build docker images" style="points=[[0.25,0,0],[0.5,0,0],[0.75,0,0],[1,0.25,0],[1,0.5,0],[1,0.75,0],[0.75,1,0],[0.5,1,0],[0.25,1,0],[0,0.75,0],[0,0.5,0],[0,0.25,0]];shape=mxgraph.bpmn.task;whiteSpace=wrap;rectStyle=rounded;size=10;html=1;container=1;expand=0;collapsible=0;taskMarker=abstract;isLoopMultiParallel=1;" parent="dNxyNK7c78bLwvsdeMH5-20" vertex="1">
          <mxGeometry x="130" y="15" width="100" height="80" as="geometry" />
        </mxCell>
        <mxCell id="jOofy7N0YQkzsHya_9s3-30" value="Push images&lt;div&gt;to artifact&lt;/div&gt;&lt;div&gt;registry&lt;/div&gt;" style="points=[[0.25,0,0],[0.5,0,0],[0.75,0,0],[1,0.25,0],[1,0.5,0],[1,0.75,0],[0.75,1,0],[0.5,1,0],[0.25,1,0],[0,0.75,0],[0,0.5,0],[0,0.25,0]];shape=mxgraph.bpmn.task;whiteSpace=wrap;rectStyle=rounded;size=10;html=1;container=1;expand=0;collapsible=0;taskMarker=abstract;isLoopMultiParallel=1;" parent="dNxyNK7c78bLwvsdeMH5-20" vertex="1">
          <mxGeometry x="360" y="15" width="100" height="80" as="geometry" />
        </mxCell>
        <mxCell id="k3Ru9bbp_LTUdSwclLNq-12" value="Package cloud functions" style="points=[[0.25,0,0],[0.5,0,0],[0.75,0,0],[1,0.25,0],[1,0.5,0],[1,0.75,0],[0.75,1,0],[0.5,1,0],[0.25,1,0],[0,0.75,0],[0,0.5,0],[0,0.25,0]];shape=mxgraph.bpmn.task;whiteSpace=wrap;rectStyle=rounded;size=10;html=1;container=1;expand=0;collapsible=0;taskMarker=abstract;isLoopMultiParallel=1;" parent="dNxyNK7c78bLwvsdeMH5-20" vertex="1">
          <mxGeometry x="130" y="135" width="100" height="80" as="geometry" />
        </mxCell>
        <mxCell id="k3Ru9bbp_LTUdSwclLNq-15" value="Upload packed function to&amp;nbsp;" style="points=[[0.25,0,0],[0.5,0,0],[0.75,0,0],[1,0.25,0],[1,0.5,0],[1,0.75,0],[0.75,1,0],[0.5,1,0],[0.25,1,0],[0,0.75,0],[0,0.5,0],[0,0.25,0]];shape=mxgraph.bpmn.task;whiteSpace=wrap;rectStyle=rounded;size=10;html=1;container=1;expand=0;collapsible=0;taskMarker=abstract;isLoopMultiParallel=1;" parent="dNxyNK7c78bLwvsdeMH5-20" vertex="1">
          <mxGeometry x="360" y="135" width="100" height="80" as="geometry" />
        </mxCell>
        <mxCell id="k3Ru9bbp_LTUdSwclLNq-16" value="" style="strokeColor=#dddddd;shadow=1;strokeWidth=1;rounded=1;absoluteArcSize=1;arcSize=2;" parent="dNxyNK7c78bLwvsdeMH5-20" vertex="1">
          <mxGeometry x="512" y="145" width="120" height="60" as="geometry" />
        </mxCell>
        <mxCell id="k3Ru9bbp_LTUdSwclLNq-17" value="Cloud&#xa;Storage" style="editableCssRules=.*;html=1;fontColor=#999999;shape=image;verticalLabelPosition=middle;verticalAlign=middle;labelPosition=right;align=left;spacingLeft=20;part=1;points=[];imageAspect=0;image=data:image/svg+xml,PHN2ZyB4bWxucz0iaHR0cDovL3d3dy53My5vcmcvMjAwMC9zdmciIHhtbG5zOnY9Imh0dHBzOi8vdmVjdGEuaW8vbmFubyIgd2lkdGg9IjIwIiBoZWlnaHQ9IjE2IiB2aWV3Qm94PSIwIDAgMjAgMTYiPiYjeGE7CTxzdHlsZSB0eXBlPSJ0ZXh0L2NzcyI+JiN4YTsJLnN0MHtmaWxsOiM0Mjg1ZjQ7fSYjeGE7CS5zdDF7ZmlsbDojNjY5ZGY2O30mI3hhOwkuc3Qye2ZpbGw6I2FlY2JmYTt9JiN4YTsJLnN0M3tmaWxsOiNmZmY7fSYjeGE7CTwvc3R5bGU+JiN4YTsJPHBhdGggY2xhc3M9InN0MiIgZD0iTTAgMGgyMHY3SDB6Ii8+JiN4YTsJPHBhdGggY2xhc3M9InN0MSIgZD0iTTE4IDBoMnY3aC0yeiIvPiYjeGE7CTxwYXRoIGNsYXNzPSJzdDAiIGQ9Ik0xOCA3bDItN2gtMnoiLz4mI3hhOwk8cGF0aCBjbGFzcz0ic3QxIiBkPSJNMCAwaDJ2N0gweiIvPiYjeGE7CTxnIGNsYXNzPSJzdDMiPiYjeGE7CQk8cGF0aCBkPSJNNCAzaDZ2MUg0eiIvPiYjeGE7CQk8cmVjdCB4PSIxMyIgeT0iMiIgd2lkdGg9IjMiIGhlaWdodD0iMyIgcng9IjEuNSIvPiYjeGE7CTwvZz4mI3hhOwk8cGF0aCBjbGFzcz0ic3QyIiBkPSJNMCA5aDIwdjdIMHoiLz4mI3hhOwk8cGF0aCBjbGFzcz0ic3QxIiBkPSJNMTggOWgydjdoLTJ6Ii8+JiN4YTsJPHBhdGggY2xhc3M9InN0MCIgZD0iTTE4IDE2bDItN2gtMnoiLz4mI3hhOwk8cGF0aCBjbGFzcz0ic3QxIiBkPSJNMCA5aDJ2N0gweiIvPiYjeGE7CTxnIGNsYXNzPSJzdDMiPiYjeGE7CQk8cGF0aCBkPSJNNCAxMmg2djFINHoiLz4mI3hhOwkJPHJlY3QgeD0iMTMiIHk9IjExIiB3aWR0aD0iMyIgaGVpZ2h0PSIzIiByeD0iMS41Ii8+JiN4YTsJPC9nPiYjeGE7PC9zdmc+;" parent="k3Ru9bbp_LTUdSwclLNq-16" vertex="1">
          <mxGeometry width="30" height="24" relative="1" as="geometry">
            <mxPoint x="15" y="18" as="offset" />
          </mxGeometry>
        </mxCell>
        <mxCell id="k3Ru9bbp_LTUdSwclLNq-38" style="edgeStyle=orthogonalEdgeStyle;rounded=0;orthogonalLoop=1;jettySize=auto;html=1;" parent="dNxyNK7c78bLwvsdeMH5-20" source="k3Ru9bbp_LTUdSwclLNq-12" target="k3Ru9bbp_LTUdSwclLNq-15" edge="1">
          <mxGeometry relative="1" as="geometry">
            <mxPoint x="240" y="65" as="sourcePoint" />
            <mxPoint x="370" y="65" as="targetPoint" />
            <Array as="points">
              <mxPoint x="300" y="155" />
              <mxPoint x="300" y="155" />
            </Array>
          </mxGeometry>
        </mxCell>
        <mxCell id="k3Ru9bbp_LTUdSwclLNq-39" style="edgeStyle=orthogonalEdgeStyle;rounded=0;orthogonalLoop=1;jettySize=auto;html=1;exitX=1;exitY=0.5;exitDx=0;exitDy=0;exitPerimeter=0;dashed=1;" parent="dNxyNK7c78bLwvsdeMH5-20" source="k3Ru9bbp_LTUdSwclLNq-40" target="k3Ru9bbp_LTUdSwclLNq-15" edge="1">
          <mxGeometry relative="1" as="geometry">
            <mxPoint x="359.5" y="175" as="targetPoint" />
          </mxGeometry>
        </mxCell>
        <mxCell id="k3Ru9bbp_LTUdSwclLNq-40" value="" style="verticalLabelPosition=bottom;html=1;verticalAlign=top;align=center;strokeColor=none;fillColor=#00BEF2;shape=mxgraph.azure.cloud_service_package_file;" parent="dNxyNK7c78bLwvsdeMH5-20" vertex="1">
          <mxGeometry x="279.5" y="185" width="40" height="40" as="geometry" />
        </mxCell>
        <mxCell id="k3Ru9bbp_LTUdSwclLNq-41" style="edgeStyle=orthogonalEdgeStyle;rounded=0;orthogonalLoop=1;jettySize=auto;html=1;entryX=0;entryY=0.5;entryDx=0;entryDy=0;entryPerimeter=0;dashed=1;" parent="dNxyNK7c78bLwvsdeMH5-20" source="k3Ru9bbp_LTUdSwclLNq-12" target="k3Ru9bbp_LTUdSwclLNq-40" edge="1">
          <mxGeometry relative="1" as="geometry">
            <mxPoint x="229.5" y="175" as="sourcePoint" />
          </mxGeometry>
        </mxCell>
        <mxCell id="k3Ru9bbp_LTUdSwclLNq-42" value="" style="edgeStyle=orthogonalEdgeStyle;rounded=0;orthogonalLoop=1;jettySize=auto;html=1;endArrow=classic;endFill=1;dashed=1;" parent="dNxyNK7c78bLwvsdeMH5-20" source="k3Ru9bbp_LTUdSwclLNq-15" target="k3Ru9bbp_LTUdSwclLNq-16" edge="1">
          <mxGeometry relative="1" as="geometry">
            <mxPoint x="470" y="65" as="sourcePoint" />
            <mxPoint x="517" y="65" as="targetPoint" />
            <Array as="points">
              <mxPoint x="520" y="175" />
              <mxPoint x="520" y="175" />
            </Array>
          </mxGeometry>
        </mxCell>
        <mxCell id="k3Ru9bbp_LTUdSwclLNq-45" style="edgeStyle=orthogonalEdgeStyle;rounded=0;orthogonalLoop=1;jettySize=auto;html=1;" parent="dNxyNK7c78bLwvsdeMH5-20" source="k3Ru9bbp_LTUdSwclLNq-43" target="jOofy7N0YQkzsHya_9s3-28" edge="1">
          <mxGeometry relative="1" as="geometry" />
        </mxCell>
        <mxCell id="k3Ru9bbp_LTUdSwclLNq-46" style="edgeStyle=orthogonalEdgeStyle;rounded=0;orthogonalLoop=1;jettySize=auto;html=1;" parent="dNxyNK7c78bLwvsdeMH5-20" source="k3Ru9bbp_LTUdSwclLNq-43" target="k3Ru9bbp_LTUdSwclLNq-12" edge="1">
          <mxGeometry relative="1" as="geometry" />
        </mxCell>
        <mxCell id="k3Ru9bbp_LTUdSwclLNq-43" value="" style="points=[[0.25,0.25,0],[0.5,0,0],[0.75,0.25,0],[1,0.5,0],[0.75,0.75,0],[0.5,1,0],[0.25,0.75,0],[0,0.5,0]];shape=mxgraph.bpmn.gateway2;html=1;verticalLabelPosition=bottom;labelBackgroundColor=#ffffff;verticalAlign=top;align=center;perimeter=rhombusPerimeter;outlineConnect=0;outline=none;symbol=none;gwType=parallel;" parent="dNxyNK7c78bLwvsdeMH5-20" vertex="1">
          <mxGeometry x="40" y="95" width="50" height="50" as="geometry" />
        </mxCell>
        <mxCell id="dNxyNK7c78bLwvsdeMH5-21" value="Deployment Stage" style="swimlane;html=1;startSize=20;horizontal=0;strokeWidth=1;" parent="dNxyNK7c78bLwvsdeMH5-19" vertex="1">
          <mxGeometry x="20" y="380" width="700" height="240" as="geometry" />
        </mxCell>
        <mxCell id="jOofy7N0YQkzsHya_9s3-21" value="" style="strokeColor=#dddddd;shadow=1;strokeWidth=1;rounded=1;absoluteArcSize=1;arcSize=2;" parent="dNxyNK7c78bLwvsdeMH5-21" vertex="1">
          <mxGeometry x="270" y="25" width="120" height="60" as="geometry" />
        </mxCell>
        <mxCell id="jOofy7N0YQkzsHya_9s3-22" value="Cloud&#xa;Storage" style="editableCssRules=.*;html=1;fontColor=#999999;shape=image;verticalLabelPosition=middle;verticalAlign=middle;labelPosition=right;align=left;spacingLeft=20;part=1;points=[];imageAspect=0;image=data:image/svg+xml,PHN2ZyB4bWxucz0iaHR0cDovL3d3dy53My5vcmcvMjAwMC9zdmciIHhtbG5zOnY9Imh0dHBzOi8vdmVjdGEuaW8vbmFubyIgd2lkdGg9IjIwIiBoZWlnaHQ9IjE2IiB2aWV3Qm94PSIwIDAgMjAgMTYiPiYjeGE7CTxzdHlsZSB0eXBlPSJ0ZXh0L2NzcyI+JiN4YTsJLnN0MHtmaWxsOiM0Mjg1ZjQ7fSYjeGE7CS5zdDF7ZmlsbDojNjY5ZGY2O30mI3hhOwkuc3Qye2ZpbGw6I2FlY2JmYTt9JiN4YTsJLnN0M3tmaWxsOiNmZmY7fSYjeGE7CTwvc3R5bGU+JiN4YTsJPHBhdGggY2xhc3M9InN0MiIgZD0iTTAgMGgyMHY3SDB6Ii8+JiN4YTsJPHBhdGggY2xhc3M9InN0MSIgZD0iTTE4IDBoMnY3aC0yeiIvPiYjeGE7CTxwYXRoIGNsYXNzPSJzdDAiIGQ9Ik0xOCA3bDItN2gtMnoiLz4mI3hhOwk8cGF0aCBjbGFzcz0ic3QxIiBkPSJNMCAwaDJ2N0gweiIvPiYjeGE7CTxnIGNsYXNzPSJzdDMiPiYjeGE7CQk8cGF0aCBkPSJNNCAzaDZ2MUg0eiIvPiYjeGE7CQk8cmVjdCB4PSIxMyIgeT0iMiIgd2lkdGg9IjMiIGhlaWdodD0iMyIgcng9IjEuNSIvPiYjeGE7CTwvZz4mI3hhOwk8cGF0aCBjbGFzcz0ic3QyIiBkPSJNMCA5aDIwdjdIMHoiLz4mI3hhOwk8cGF0aCBjbGFzcz0ic3QxIiBkPSJNMTggOWgydjdoLTJ6Ii8+JiN4YTsJPHBhdGggY2xhc3M9InN0MCIgZD0iTTE4IDE2bDItN2gtMnoiLz4mI3hhOwk8cGF0aCBjbGFzcz0ic3QxIiBkPSJNMCA5aDJ2N0gweiIvPiYjeGE7CTxnIGNsYXNzPSJzdDMiPiYjeGE7CQk8cGF0aCBkPSJNNCAxMmg2djFINHoiLz4mI3hhOwkJPHJlY3QgeD0iMTMiIHk9IjExIiB3aWR0aD0iMyIgaGVpZ2h0PSIzIiByeD0iMS41Ii8+JiN4YTsJPC9nPiYjeGE7PC9zdmc+;" parent="jOofy7N0YQkzsHya_9s3-21" vertex="1">
          <mxGeometry width="30" height="24" relative="1" as="geometry">
            <mxPoint x="15" y="18" as="offset" />
          </mxGeometry>
        </mxCell>
        <mxCell id="k3Ru9bbp_LTUdSwclLNq-57" style="edgeStyle=orthogonalEdgeStyle;rounded=0;orthogonalLoop=1;jettySize=auto;html=1;dashed=1;" parent="dNxyNK7c78bLwvsdeMH5-21" source="jOofy7N0YQkzsHya_9s3-33" target="jOofy7N0YQkzsHya_9s3-21" edge="1">
          <mxGeometry relative="1" as="geometry" />
        </mxCell>
        <mxCell id="jOofy7N0YQkzsHya_9s3-33" value="" style="shape=mxgraph.bpmn.data;labelPosition=center;verticalLabelPosition=bottom;align=center;verticalAlign=top;size=15;html=1;" parent="dNxyNK7c78bLwvsdeMH5-21" vertex="1">
          <mxGeometry x="105" y="30" width="40" height="50" as="geometry" />
        </mxCell>
        <mxCell id="k3Ru9bbp_LTUdSwclLNq-52" style="edgeStyle=orthogonalEdgeStyle;rounded=0;orthogonalLoop=1;jettySize=auto;html=1;dashed=1;" parent="dNxyNK7c78bLwvsdeMH5-21" source="jOofy7N0YQkzsHya_9s3-34" target="k3Ru9bbp_LTUdSwclLNq-50" edge="1">
          <mxGeometry relative="1" as="geometry">
            <Array as="points">
              <mxPoint x="125" y="130" />
              <mxPoint x="150" y="130" />
            </Array>
          </mxGeometry>
        </mxCell>
        <mxCell id="jOofy7N0YQkzsHya_9s3-34" value="enterprise-&lt;div&gt;tenants.json&lt;/div&gt;" style="text;html=1;align=center;verticalAlign=middle;resizable=0;points=[];autosize=1;strokeColor=none;fillColor=none;" parent="dNxyNK7c78bLwvsdeMH5-21" vertex="1">
          <mxGeometry x="80" y="80" width="90" height="40" as="geometry" />
        </mxCell>
        <mxCell id="k3Ru9bbp_LTUdSwclLNq-60" style="edgeStyle=orthogonalEdgeStyle;rounded=0;orthogonalLoop=1;jettySize=auto;html=1;dashed=1;dashPattern=8 8;" parent="dNxyNK7c78bLwvsdeMH5-21" source="jOofy7N0YQkzsHya_9s3-47" target="jOofy7N0YQkzsHya_9s3-21" edge="1">
          <mxGeometry relative="1" as="geometry" />
        </mxCell>
        <mxCell id="jOofy7N0YQkzsHya_9s3-47" value="" style="shape=mxgraph.bpmn.data;labelPosition=center;verticalLabelPosition=bottom;align=center;verticalAlign=top;size=15;html=1;" parent="dNxyNK7c78bLwvsdeMH5-21" vertex="1">
          <mxGeometry x="550" y="30" width="40" height="50" as="geometry" />
        </mxCell>
        <mxCell id="jOofy7N0YQkzsHya_9s3-48" value="&lt;div&gt;deployment.json&lt;/div&gt;" style="text;html=1;align=center;verticalAlign=middle;resizable=0;points=[];autosize=1;strokeColor=none;fillColor=none;" parent="dNxyNK7c78bLwvsdeMH5-21" vertex="1">
          <mxGeometry x="515" y="80" width="110" height="30" as="geometry" />
        </mxCell>
        <mxCell id="k3Ru9bbp_LTUdSwclLNq-51" style="edgeStyle=orthogonalEdgeStyle;rounded=0;orthogonalLoop=1;jettySize=auto;html=1;exitX=0.5;exitY=1;exitDx=0;exitDy=0;exitPerimeter=0;" parent="dNxyNK7c78bLwvsdeMH5-21" source="k3Ru9bbp_LTUdSwclLNq-47" target="k3Ru9bbp_LTUdSwclLNq-50" edge="1">
          <mxGeometry relative="1" as="geometry">
            <Array as="points">
              <mxPoint x="55" y="185" />
            </Array>
          </mxGeometry>
        </mxCell>
        <mxCell id="k3Ru9bbp_LTUdSwclLNq-47" value="" style="points=[[0.25,0.25,0],[0.5,0,0],[0.75,0.25,0],[1,0.5,0],[0.75,0.75,0],[0.5,1,0],[0.25,0.75,0],[0,0.5,0]];shape=mxgraph.bpmn.gateway2;html=1;verticalLabelPosition=bottom;labelBackgroundColor=#ffffff;verticalAlign=top;align=center;perimeter=rhombusPerimeter;outlineConnect=0;outline=none;symbol=none;gwType=parallel;" parent="dNxyNK7c78bLwvsdeMH5-21" vertex="1">
          <mxGeometry x="30" y="120" width="50" height="50" as="geometry" />
        </mxCell>
        <mxCell id="k3Ru9bbp_LTUdSwclLNq-54" style="edgeStyle=orthogonalEdgeStyle;rounded=0;orthogonalLoop=1;jettySize=auto;html=1;" parent="dNxyNK7c78bLwvsdeMH5-21" source="k3Ru9bbp_LTUdSwclLNq-50" target="k3Ru9bbp_LTUdSwclLNq-53" edge="1">
          <mxGeometry relative="1" as="geometry" />
        </mxCell>
        <mxCell id="k3Ru9bbp_LTUdSwclLNq-50" value="Fetch list of enterprise tenants&lt;div&gt;&lt;/div&gt;" style="points=[[0.25,0,0],[0.5,0,0],[0.75,0,0],[1,0.25,0],[1,0.5,0],[1,0.75,0],[0.75,1,0],[0.5,1,0],[0.25,1,0],[0,0.75,0],[0,0.5,0],[0,0.25,0]];shape=mxgraph.bpmn.task;whiteSpace=wrap;rectStyle=rounded;size=10;html=1;container=1;expand=0;collapsible=0;taskMarker=abstract;" parent="dNxyNK7c78bLwvsdeMH5-21" vertex="1">
          <mxGeometry x="90" y="145" width="120" height="80" as="geometry" />
        </mxCell>
        <mxCell id="k3Ru9bbp_LTUdSwclLNq-56" style="edgeStyle=orthogonalEdgeStyle;rounded=0;orthogonalLoop=1;jettySize=auto;html=1;" parent="dNxyNK7c78bLwvsdeMH5-21" source="k3Ru9bbp_LTUdSwclLNq-53" target="k3Ru9bbp_LTUdSwclLNq-55" edge="1">
          <mxGeometry relative="1" as="geometry" />
        </mxCell>
        <mxCell id="k3Ru9bbp_LTUdSwclLNq-53" value="&lt;div&gt;&lt;b&gt;Terraform&lt;/b&gt;&lt;/div&gt;Apply changes to&amp;nbsp;&lt;div&gt;the application&lt;/div&gt;" style="points=[[0.25,0,0],[0.5,0,0],[0.75,0,0],[1,0.25,0],[1,0.5,0],[1,0.75,0],[0.75,1,0],[0.5,1,0],[0.25,1,0],[0,0.75,0],[0,0.5,0],[0,0.25,0]];shape=mxgraph.bpmn.task;whiteSpace=wrap;rectStyle=rounded;size=10;html=1;container=1;expand=0;collapsible=0;taskMarker=abstract;" parent="dNxyNK7c78bLwvsdeMH5-21" vertex="1">
          <mxGeometry x="230" y="145" width="120" height="80" as="geometry" />
        </mxCell>
        <mxCell id="k3Ru9bbp_LTUdSwclLNq-59" style="edgeStyle=orthogonalEdgeStyle;rounded=0;orthogonalLoop=1;jettySize=auto;html=1;" parent="dNxyNK7c78bLwvsdeMH5-21" source="k3Ru9bbp_LTUdSwclLNq-55" target="k3Ru9bbp_LTUdSwclLNq-58" edge="1">
          <mxGeometry relative="1" as="geometry" />
        </mxCell>
        <mxCell id="k3Ru9bbp_LTUdSwclLNq-55" value="&lt;div&gt;&lt;b&gt;CloudRun&lt;/b&gt;&lt;/div&gt;Deploy updated&amp;nbsp; management services" style="points=[[0.25,0,0],[0.5,0,0],[0.75,0,0],[1,0.25,0],[1,0.5,0],[1,0.75,0],[0.75,1,0],[0.5,1,0],[0.25,1,0],[0,0.75,0],[0,0.5,0],[0,0.25,0]];shape=mxgraph.bpmn.task;whiteSpace=wrap;rectStyle=rounded;size=10;html=1;container=1;expand=0;collapsible=0;taskMarker=abstract;" parent="dNxyNK7c78bLwvsdeMH5-21" vertex="1">
          <mxGeometry x="370" y="145" width="120" height="80" as="geometry" />
        </mxCell>
        <mxCell id="k3Ru9bbp_LTUdSwclLNq-61" style="edgeStyle=orthogonalEdgeStyle;rounded=0;orthogonalLoop=1;jettySize=auto;html=1;dashed=1;" parent="dNxyNK7c78bLwvsdeMH5-21" source="k3Ru9bbp_LTUdSwclLNq-58" target="jOofy7N0YQkzsHya_9s3-48" edge="1">
          <mxGeometry relative="1" as="geometry" />
        </mxCell>
        <mxCell id="k3Ru9bbp_LTUdSwclLNq-63" style="edgeStyle=orthogonalEdgeStyle;rounded=0;orthogonalLoop=1;jettySize=auto;html=1;" parent="dNxyNK7c78bLwvsdeMH5-21" source="k3Ru9bbp_LTUdSwclLNq-58" target="k3Ru9bbp_LTUdSwclLNq-62" edge="1">
          <mxGeometry relative="1" as="geometry" />
        </mxCell>
        <mxCell id="k3Ru9bbp_LTUdSwclLNq-58" value="Write deployment&amp;nbsp;&lt;div&gt;info to cloud storage&lt;div&gt;&lt;/div&gt;&lt;/div&gt;" style="points=[[0.25,0,0],[0.5,0,0],[0.75,0,0],[1,0.25,0],[1,0.5,0],[1,0.75,0],[0.75,1,0],[0.5,1,0],[0.25,1,0],[0,0.75,0],[0,0.5,0],[0,0.25,0]];shape=mxgraph.bpmn.task;whiteSpace=wrap;rectStyle=rounded;size=10;html=1;container=1;expand=0;collapsible=0;taskMarker=abstract;" parent="dNxyNK7c78bLwvsdeMH5-21" vertex="1">
          <mxGeometry x="510" y="145" width="120" height="80" as="geometry" />
        </mxCell>
        <mxCell id="k3Ru9bbp_LTUdSwclLNq-62" value="" style="points=[[0.145,0.145,0],[0.5,0,0],[0.855,0.145,0],[1,0.5,0],[0.855,0.855,0],[0.5,1,0],[0.145,0.855,0],[0,0.5,0]];shape=mxgraph.bpmn.event;html=1;verticalLabelPosition=bottom;labelBackgroundColor=#ffffff;verticalAlign=top;align=center;perimeter=ellipsePerimeter;outlineConnect=0;aspect=fixed;outline=end;symbol=terminate2;" parent="dNxyNK7c78bLwvsdeMH5-21" vertex="1">
          <mxGeometry x="647" y="165" width="40" height="40" as="geometry" />
        </mxCell>
        <mxCell id="k3Ru9bbp_LTUdSwclLNq-44" style="edgeStyle=orthogonalEdgeStyle;rounded=0;orthogonalLoop=1;jettySize=auto;html=1;entryX=0.5;entryY=0;entryDx=0;entryDy=0;entryPerimeter=0;" parent="dNxyNK7c78bLwvsdeMH5-19" source="k3Ru9bbp_LTUdSwclLNq-33" target="k3Ru9bbp_LTUdSwclLNq-43" edge="1">
          <mxGeometry relative="1" as="geometry">
            <Array as="points">
              <mxPoint x="405" y="110" />
              <mxPoint x="85" y="110" />
            </Array>
          </mxGeometry>
        </mxCell>
        <mxCell id="k3Ru9bbp_LTUdSwclLNq-48" style="edgeStyle=orthogonalEdgeStyle;rounded=0;orthogonalLoop=1;jettySize=auto;html=1;exitX=1;exitY=0.75;exitDx=0;exitDy=0;exitPerimeter=0;" parent="dNxyNK7c78bLwvsdeMH5-19" source="jOofy7N0YQkzsHya_9s3-30" target="k3Ru9bbp_LTUdSwclLNq-47" edge="1">
          <mxGeometry relative="1" as="geometry">
            <Array as="points">
              <mxPoint x="500" y="195" />
              <mxPoint x="500" y="390" />
              <mxPoint x="90" y="390" />
            </Array>
          </mxGeometry>
        </mxCell>
        <mxCell id="k3Ru9bbp_LTUdSwclLNq-49" style="edgeStyle=orthogonalEdgeStyle;rounded=0;orthogonalLoop=1;jettySize=auto;html=1;" parent="dNxyNK7c78bLwvsdeMH5-19" source="k3Ru9bbp_LTUdSwclLNq-15" target="k3Ru9bbp_LTUdSwclLNq-47" edge="1">
          <mxGeometry relative="1" as="geometry">
            <Array as="points">
              <mxPoint x="430" y="370" />
              <mxPoint x="60" y="370" />
            </Array>
          </mxGeometry>
        </mxCell>
        <mxCell id="jOofy7N0YQkzsHya_9s3-52" value="PR Pipeline" style="swimlane;html=1;childLayout=stackLayout;resizeParent=1;resizeParentMax=0;horizontal=0;startSize=20;horizontalStack=0;" parent="1" vertex="1">
          <mxGeometry x="160" y="920" width="400" height="430" as="geometry" />
        </mxCell>
        <mxCell id="jOofy7N0YQkzsHya_9s3-53" value="Build" style="swimlane;html=1;startSize=20;horizontal=0;" parent="jOofy7N0YQkzsHya_9s3-52" vertex="1">
          <mxGeometry x="20" width="380" height="110" as="geometry" />
        </mxCell>
        <mxCell id="k3Ru9bbp_LTUdSwclLNq-7" value="Build docker&lt;div&gt;images&lt;/div&gt;" style="points=[[0.25,0,0],[0.5,0,0],[0.75,0,0],[1,0.25,0],[1,0.5,0],[1,0.75,0],[0.75,1,0],[0.5,1,0],[0.25,1,0],[0,0.75,0],[0,0.5,0],[0,0.25,0]];shape=mxgraph.bpmn.task;whiteSpace=wrap;rectStyle=rounded;size=10;html=1;container=1;expand=0;collapsible=0;taskMarker=abstract;isLoopMultiParallel=1;" parent="jOofy7N0YQkzsHya_9s3-53" vertex="1">
          <mxGeometry x="210" y="15" width="120" height="80" as="geometry" />
        </mxCell>
        <mxCell id="jOofy7N0YQkzsHya_9s3-91" value="Test" style="swimlane;html=1;startSize=20;horizontal=0;" parent="jOofy7N0YQkzsHya_9s3-52" vertex="1">
          <mxGeometry x="20" y="110" width="380" height="120" as="geometry" />
        </mxCell>
        <mxCell id="k3Ru9bbp_LTUdSwclLNq-8" value="Run unit tests" style="points=[[0.25,0,0],[0.5,0,0],[0.75,0,0],[1,0.25,0],[1,0.5,0],[1,0.75,0],[0.75,1,0],[0.5,1,0],[0.25,1,0],[0,0.75,0],[0,0.5,0],[0,0.25,0]];shape=mxgraph.bpmn.task;whiteSpace=wrap;rectStyle=rounded;size=10;html=1;container=1;expand=0;collapsible=0;taskMarker=abstract;isLoopMultiParallel=1;" parent="jOofy7N0YQkzsHya_9s3-91" vertex="1">
          <mxGeometry x="210" y="20" width="120" height="80" as="geometry" />
        </mxCell>
        <mxCell id="k3Ru9bbp_LTUdSwclLNq-67" style="edgeStyle=orthogonalEdgeStyle;rounded=0;orthogonalLoop=1;jettySize=auto;html=1;" parent="jOofy7N0YQkzsHya_9s3-91" source="k3Ru9bbp_LTUdSwclLNq-64" target="k3Ru9bbp_LTUdSwclLNq-8" edge="1">
          <mxGeometry relative="1" as="geometry" />
        </mxCell>
        <mxCell id="k3Ru9bbp_LTUdSwclLNq-64" value="" style="points=[[0.25,0.25,0],[0.5,0,0],[0.75,0.25,0],[1,0.5,0],[0.75,0.75,0],[0.5,1,0],[0.25,0.75,0],[0,0.5,0]];shape=mxgraph.bpmn.gateway2;html=1;verticalLabelPosition=bottom;labelBackgroundColor=#ffffff;verticalAlign=top;align=center;perimeter=rhombusPerimeter;outlineConnect=0;outline=none;symbol=none;gwType=parallel;" parent="jOofy7N0YQkzsHya_9s3-91" vertex="1">
          <mxGeometry x="100" y="35" width="50" height="50" as="geometry" />
        </mxCell>
        <mxCell id="k3Ru9bbp_LTUdSwclLNq-65" style="edgeStyle=orthogonalEdgeStyle;rounded=0;orthogonalLoop=1;jettySize=auto;html=1;" parent="jOofy7N0YQkzsHya_9s3-91" source="jOofy7N0YQkzsHya_9s3-55" target="k3Ru9bbp_LTUdSwclLNq-64" edge="1">
          <mxGeometry relative="1" as="geometry" />
        </mxCell>
        <mxCell id="jOofy7N0YQkzsHya_9s3-55" value="" style="ellipse;whiteSpace=wrap;html=1;" parent="jOofy7N0YQkzsHya_9s3-91" vertex="1">
          <mxGeometry x="35" y="40" width="40" height="40" as="geometry" />
        </mxCell>
        <mxCell id="jOofy7N0YQkzsHya_9s3-58" value="PR on&amp;nbsp;&lt;div&gt;dev/main&lt;/div&gt;" style="text;html=1;align=center;verticalAlign=middle;resizable=0;points=[];autosize=1;strokeColor=none;fillColor=none;" parent="jOofy7N0YQkzsHya_9s3-91" vertex="1">
          <mxGeometry x="20" y="80" width="70" height="40" as="geometry" />
        </mxCell>
        <mxCell id="jOofy7N0YQkzsHya_9s3-68" value="Infrastructure" style="swimlane;html=1;startSize=20;horizontal=0;" parent="jOofy7N0YQkzsHya_9s3-52" vertex="1">
          <mxGeometry x="20" y="230" width="380" height="200" as="geometry" />
        </mxCell>
        <mxCell id="k3Ru9bbp_LTUdSwclLNq-4" value="&lt;b&gt;Terraform&lt;/b&gt;&lt;div&gt;Plan changes to the infrastructure&lt;/div&gt;" style="points=[[0.25,0,0],[0.5,0,0],[0.75,0,0],[1,0.25,0],[1,0.5,0],[1,0.75,0],[0.75,1,0],[0.5,1,0],[0.25,1,0],[0,0.75,0],[0,0.5,0],[0,0.25,0]];shape=mxgraph.bpmn.task;whiteSpace=wrap;rectStyle=rounded;size=10;html=1;container=1;expand=0;collapsible=0;taskMarker=abstract;" parent="jOofy7N0YQkzsHya_9s3-68" vertex="1">
          <mxGeometry x="210" y="10" width="120" height="80" as="geometry" />
        </mxCell>
        <mxCell id="k3Ru9bbp_LTUdSwclLNq-69" value="&lt;b&gt;Terraform&lt;/b&gt;&lt;div&gt;Plan changes to the application&lt;/div&gt;" style="points=[[0.25,0,0],[0.5,0,0],[0.75,0,0],[1,0.25,0],[1,0.5,0],[1,0.75,0],[0.75,1,0],[0.5,1,0],[0.25,1,0],[0,0.75,0],[0,0.5,0],[0,0.25,0]];shape=mxgraph.bpmn.task;whiteSpace=wrap;rectStyle=rounded;size=10;html=1;container=1;expand=0;collapsible=0;taskMarker=abstract;" parent="jOofy7N0YQkzsHya_9s3-68" vertex="1">
          <mxGeometry x="210" y="100" width="120" height="80" as="geometry" />
        </mxCell>
        <mxCell id="k3Ru9bbp_LTUdSwclLNq-66" style="edgeStyle=orthogonalEdgeStyle;rounded=0;orthogonalLoop=1;jettySize=auto;html=1;" parent="jOofy7N0YQkzsHya_9s3-52" source="k3Ru9bbp_LTUdSwclLNq-64" target="k3Ru9bbp_LTUdSwclLNq-7" edge="1">
          <mxGeometry relative="1" as="geometry">
            <Array as="points">
              <mxPoint x="145" y="55" />
            </Array>
          </mxGeometry>
        </mxCell>
        <mxCell id="k3Ru9bbp_LTUdSwclLNq-68" style="edgeStyle=orthogonalEdgeStyle;rounded=0;orthogonalLoop=1;jettySize=auto;html=1;" parent="jOofy7N0YQkzsHya_9s3-52" source="k3Ru9bbp_LTUdSwclLNq-64" target="k3Ru9bbp_LTUdSwclLNq-4" edge="1">
          <mxGeometry relative="1" as="geometry">
            <Array as="points">
              <mxPoint x="145" y="290" />
            </Array>
          </mxGeometry>
        </mxCell>
        <mxCell id="k3Ru9bbp_LTUdSwclLNq-70" style="edgeStyle=orthogonalEdgeStyle;rounded=0;orthogonalLoop=1;jettySize=auto;html=1;" parent="jOofy7N0YQkzsHya_9s3-52" source="k3Ru9bbp_LTUdSwclLNq-64" target="k3Ru9bbp_LTUdSwclLNq-69" edge="1">
          <mxGeometry relative="1" as="geometry">
            <Array as="points">
              <mxPoint x="145" y="370" />
            </Array>
          </mxGeometry>
        </mxCell>
      </root>
    </mxGraphModel>
  </diagram>
</mxfile>
